# xmcd CD database file
#
# Track frame offsets:
#	150
#	31073
#	67367
#	95806
#	125309
#	160904
#	192578
#	220110
#	256616
#
# Disc length: 3689 seconds
#
# Revision: 0
# Processed by: cddbd v1.5.2PL0 Copyright (c) Steve Scherf et al.
# Submitted via: CDex 1.70beta2
#
DISCID=7f0e6709
DTITLE=BobBrookmeyer - Stay Out Of The Sun
DYEAR=2000
DGENRE=Jazz
TTITLE0=If I Love You
TTITLE1=Wistful Thinking
TTITLE2=Stay Out Of The Sun
TTITLE3=Longing
TTITLE4=Kathleen
TTITLE5=Turtle
TTITLE6=Janet Planet
TTITLE7=Bruise
TTITLE8=Blue In Green
EXTD=YEAR: 2000
EXTT0=
EXTT1=
EXTT2=
EXTT3=
EXTT4=
EXTT5=
EXTT6=
EXTT7=
EXTT8=
PLAYORDER=
